<?xml version="1.0" encoding="UTF-8"?>
<svg width="32" height="32" viewBox="0 0 32 32" xmlns="http://www.w3.org/2000/svg">
  <!-- Flying bat -->
  
  <!-- Body -->
  <rect x="14" y="12" width="4" height="8" fill="#2F2F2F"/>
  
  <!-- Head -->
  <rect x="13" y="8" width="6" height="4" fill="#2F2F2F"/>
  <rect x="12" y="9" width="2" height="2" fill="#2F2F2F"/>
  <rect x="18" y="9" width="2" height="2" fill="#2F2F2F"/>
  
  <!-- Ears -->
  <rect x="11" y="6" width="2" height="3" fill="#2F2F2F"/>
  <rect x="19" y="6" width="2" height="3" fill="#2F2F2F"/>
  <rect x="10" y="4" width="1" height="2" fill="#2F2F2F"/>
  <rect x="21" y="4" width="1" height="2" fill="#2F2F2F"/>
  
  <!-- Eyes (red) -->
  <rect x="13" y="9" width="1" height="1" fill="#FF0000"/>
  <rect x="18" y="9" width="1" height="1" fill="#FF0000"/>
  
  <!-- Wing membranes (dark purple/gray) -->
  <rect x="4" y="10" width="9" height="8" fill="#4B0082"/>
  <rect x="19" y="10" width="9" height="8" fill="#4B0082"/>
  
  <!-- Wing structure -->
  <rect x="2" y="12" width="11" height="2" fill="#2F2F2F"/>
  <rect x="19" y="12" width="11" height="2" fill="#2F2F2F"/>
  <rect x="1" y="14" width="12" height="1" fill="#2F2F2F"/>
  <rect x="19" y="14" width="12" height="1" fill="#2F2F2F"/>
  
  <!-- Wing tips -->
  <rect x="0" y="15" width="4" height="3" fill="#4B0082"/>
  <rect x="28" y="15" width="4" height="3" fill="#4B0082"/>
  
  <!-- Wing fingers/bones -->
  <rect x="6" y="11" width="1" height="6" fill="#2F2F2F"/>
  <rect x="9" y="10" width="1" height="7" fill="#2F2F2F"/>
  <rect x="22" y="10" width="1" height="7" fill="#2F2F2F"/>
  <rect x="25" y="11" width="1" height="6" fill="#2F2F2F"/>
  
  <!-- Tail -->
  <rect x="15" y="20" width="2" height="3" fill="#2F2F2F"/>
  <rect x="14" y="23" width="4" height="1" fill="#2F2F2F"/>
</svg>
