<?xml version="1.0" encoding="UTF-8"?>
<svg width="32" height="32" viewBox="0 0 32 32" xmlns="http://www.w3.org/2000/svg">
  <!-- Cave wall - dark rocky stone -->
  
  <!-- Base color -->
  <rect x="0" y="0" width="32" height="32" fill="#464650"/>
  
  <!-- Rock formations -->
  <rect x="0" y="0" width="8" height="6" fill="#3C3C46"/>
  <rect x="8" y="2" width="6" height="8" fill="#404048"/>
  <rect x="16" y="0" width="7" height="5" fill="#383842"/>
  <rect x="24" y="1" width="8" height="7" fill="#424248"/>
  
  <rect x="2" y="8" width="5" height="6" fill="#404048"/>
  <rect x="9" y="10" width="8" height="8" fill="#383842"/>
  <rect x="18" y="6" width="6" height="9" fill="#3C3C46"/>
  <rect x="26" y="8" width="6" height="6" fill="#424248"/>
  
  <rect x="0" y="16" width="7" height="8" fill="#424248"/>
  <rect x="8" y="18" width="6" height="5" fill="#3C3C46"/>
  <rect x="15" y="16" width="9" height="7" fill="#404048"/>
  <rect x="25" y="17" width="7" height="8" fill="#383842"/>
  
  <rect x="1" y="25" width="6" height="7" fill="#404048"/>
  <rect x="9" y="24" width="8" height="8" fill="#383842"/>
  <rect x="19" y="26" width="6" height="6" fill="#3C3C46"/>
  <rect x="26" y="25" width="6" height="7" fill="#424248"/>
  
  <!-- Cracks and details -->
  <rect x="4" y="0" width="1" height="8" fill="#2C2C36"/>
  <rect x="12" y="4" width="1" height="12" fill="#2C2C36"/>
  <rect x="20" y="2" width="1" height="10" fill="#2C2C36"/>
  <rect x="28" y="6" width="1" height="8" fill="#2C2C36"/>
  
  <rect x="0" y="12" width="8" height="1" fill="#2C2C36"/>
  <rect x="10" y="20" width="12" height="1" fill="#2C2C36"/>
  <rect x="24" y="16" width="8" height="1" fill="#2C2C36"/>
  
  <!-- Small mineral spots -->
  <rect x="6" y="3" width="1" height="1" fill="#5A5A6A"/>
  <rect x="14" y="8" width="1" height="1" fill="#5A5A6A"/>
  <rect x="22" y="12" width="1" height="1" fill="#5A5A6A"/>
  <rect x="11" y="22" width="1" height="1" fill="#5A5A6A"/>
  <rect x="29" y="28" width="1" height="1" fill="#5A5A6A"/>
</svg>
