<?xml version="1.0" encoding="UTF-8"?>
<svg width="32" height="32" viewBox="0 0 32 32" xmlns="http://www.w3.org/2000/svg">
  <!-- Cave floor - rocky stone texture -->
  
  <!-- Base color -->
  <rect x="0" y="0" width="32" height="32" fill="#646464"/>
  
  <!-- Rock texture pattern -->
  <rect x="2" y="2" width="6" height="4" fill="#545454"/>
  <rect x="10" y="1" width="8" height="5" fill="#585858"/>
  <rect x="20" y="3" width="5" height="6" fill="#525252"/>
  <rect x="26" y="0" width="6" height="8" fill="#565656"/>
  
  <rect x="0" y="8" width="4" height="6" fill="#585858"/>
  <rect x="6" y="10" width="7" height="4" fill="#525252"/>
  <rect x="15" y="8" width="6" height="7" fill="#545454"/>
  <rect x="23" y="12" width="9" height="5" fill="#565656"/>
  
  <rect x="1" y="16" width="8" height="6" fill="#545454"/>
  <rect x="12" y="18" width="5" height="8" fill="#585858"/>
  <rect x="19" y="20" width="7" height="4" fill="#525252"/>
  <rect x="28" y="17" width="4" height="9" fill="#565656"/>
  
  <rect x="3" y="26" width="6" height="6" fill="#565656"/>
  <rect x="11" y="28" width="9" height="4" fill="#545454"/>
  <rect x="22" y="26" width="8" height="6" fill="#585858"/>
  
  <!-- Small details -->
  <rect x="5" y="5" width="2" height="1" fill="#484848"/>
  <rect x="15" y="3" width="1" height="2" fill="#484848"/>
  <rect x="24" y="7" width="2" height="1" fill="#484848"/>
  <rect x="8" y="13" width="1" height="1" fill="#484848"/>
  <rect x="18" y="15" width="2" height="1" fill="#484848"/>
  <rect x="12" y="23" width="1" height="2" fill="#484848"/>
  <rect x="26" y="29" width="2" height="1" fill="#484848"/>
</svg>
