<?xml version="1.0" encoding="UTF-8"?>
<svg width="32" height="32" viewBox="0 0 32 32" xmlns="http://www.w3.org/2000/svg">
  <!-- Treasure chest -->
  
  <!-- Chest base (wood) -->
  <rect x="4" y="16" width="24" height="12" fill="#8B4513"/>
  
  <!-- Chest lid -->
  <rect x="4" y="8" width="24" height="8" fill="#A0522D"/>
  
  <!-- Wood grain -->
  <rect x="6" y="10" width="20" height="1" fill="#654321"/>
  <rect x="6" y="13" width="20" height="1" fill="#654321"/>
  <rect x="6" y="18" width="20" height="1" fill="#654321"/>
  <rect x="6" y="21" width="20" height="1" fill="#654321"/>
  <rect x="6" y="24" width="20" height="1" fill="#654321"/>
  
  <!-- Metal bands -->
  <rect x="2" y="14" width="28" height="3" fill="#696969"/>
  <rect x="2" y="25" width="28" height="3" fill="#696969"/>
  
  <!-- Lock -->
  <rect x="14" y="11" width="4" height="6" fill="#FFD700"/>
  <rect x="15" y="12" width="2" height="2" fill="#B8860B"/>
  <rect x="15" y="15" width="2" height="1" fill="#B8860B"/>
  
  <!-- Keyhole -->
  <rect x="15" y="13" width="2" height="1" fill="#000000"/>
  
  <!-- Corner reinforcements -->
  <rect x="2" y="8" width="2" height="4" fill="#696969"/>
  <rect x="28" y="8" width="2" height="4" fill="#696969"/>
  <rect x="2" y="24" width="2" height="4" fill="#696969"/>
  <rect x="28" y="24" width="2" height="4" fill="#696969"/>
  
  <!-- Hinges -->
  <rect x="4" y="8" width="2" height="2" fill="#2F4F4F"/>
  <rect x="26" y="8" width="2" height="2" fill="#2F4F4F"/>
  
  <!-- Shadow -->
  <rect x="6" y="28" width="20" height="2" fill="#5D4037"/>
  
  <!-- Highlight on lid -->
  <rect x="6" y="9" width="20" height="1" fill="#CD853F"/>
</svg>
