<?xml version="1.0" encoding="UTF-8"?>
<svg width="32" height="32" viewBox="0 0 32 32" xmlns="http://www.w3.org/2000/svg">
  <!-- Forest floor - earthy with grass and leaves -->
  
  <!-- Base earth color -->
  <rect x="0" y="0" width="32" height="32" fill="#5A7840"/>
  
  <!-- Grass patches -->
  <rect x="2" y="1" width="4" height="6" fill="#6B8B47"/>
  <rect x="8" y="0" width="6" height="4" fill="#7AA64A"/>
  <rect x="16" y="2" width="5" height="5" fill="#6B8B47"/>
  <rect x="24" y="0" width="8" height="6" fill="#7AA64A"/>
  
  <rect x="0" y="8" width="5" height="5" fill="#7AA64A"/>
  <rect x="7" y="6" width="6" height="7" fill="#6B8B47"/>
  <rect x="15" y="9" width="7" height="4" fill="#7AA64A"/>
  <rect x="24" y="8" width="8" height="6" fill="#6B8B47"/>
  
  <rect x="1" y="16" width="6" height="6" fill="#6B8B47"/>
  <rect x="9" y="15" width="5" height="8" fill="#7AA64A"/>
  <rect x="16" y="17" width="8" height="5" fill="#6B8B47"/>
  <rect x="26" y="16" width="6" height="7" fill="#7AA64A"/>
  
  <rect x="0" y="24" width="7" height="8" fill="#7AA64A"/>
  <rect x="9" y="26" width="6" height="6" fill="#6B8B47"/>
  <rect x="17" y="24" width="7" height="8" fill="#7AA64A"/>
  <rect x="26" y="25" width="6" height="7" fill="#6B8B47"/>
  
  <!-- Fallen leaves -->
  <rect x="5" y="3" width="2" height="1" fill="#CD853F"/>
  <rect x="12" y="7" width="1" height="2" fill="#D2691E"/>
  <rect x="20" y="5" width="2" height="1" fill="#A0522D"/>
  <rect x="28" y="11" width="1" height="1" fill="#CD853F"/>
  <rect x="4" y="14" width="1" height="1" fill="#D2691E"/>
  <rect x="11" y="19" width="2" height="1" fill="#A0522D"/>
  <rect x="19" y="21" width="1" height="2" fill="#CD853F"/>
  <rect x="6" y="28" width="1" height="1" fill="#D2691E"/>
  <rect x="14" y="30" width="2" height="1" fill="#A0522D"/>
  <rect x="23" y="29" width="1" height="1" fill="#CD853F"/>
  
  <!-- Small rocks -->
  <rect x="7" y="11" width="1" height="1" fill="#696969"/>
  <rect x="18" y="13" width="1" height="1" fill="#696969"/>
  <rect x="25" y="19" width="1" height="1" fill="#696969"/>
  <rect x="13" y="25" width="1" height="1" fill="#696969"/>
</svg>
