<?xml version="1.0" encoding="UTF-8"?>
<svg width="32" height="32" viewBox="0 0 32 32" xmlns="http://www.w3.org/2000/svg">
  <!-- Goblin creature -->
  
  <!-- Head -->
  <rect x="10" y="6" width="12" height="8" fill="#8FBC8F"/>
  <rect x="8" y="8" width="2" height="4" fill="#8FBC8F"/>
  <rect x="22" y="8" width="2" height="4" fill="#8FBC8F"/>
  
  <!-- Pointed ears -->
  <rect x="6" y="8" width="2" height="2" fill="#8FBC8F"/>
  <rect x="24" y="8" width="2" height="2" fill="#8FBC8F"/>
  <rect x="4" y="9" width="2" height="1" fill="#8FBC8F"/>
  <rect x="26" y="9" width="2" height="1" fill="#8FBC8F"/>
  
  <!-- Eyes (red/yellow) -->
  <rect x="12" y="8" width="2" height="2" fill="#FFD700"/>
  <rect x="18" y="8" width="2" height="2" fill="#FFD700"/>
  <rect x="12" y="8" width="1" height="1" fill="#8B0000"/>
  <rect x="19" y="8" width="1" height="1" fill="#8B0000"/>
  
  <!-- Large nose -->
  <rect x="14" y="10" width="4" height="2" fill="#7BAA7B"/>
  <rect x="15" y="12" width="2" height="1" fill="#7BAA7B"/>
  
  <!-- Mouth/teeth -->
  <rect x="13" y="12" width="6" height="2" fill="#000000"/>
  <rect x="14" y="12" width="1" height="2" fill="#FFFFFF"/>
  <rect x="17" y="12" width="1" height="2" fill="#FFFFFF"/>
  
  <!-- Body -->
  <rect x="8" y="14" width="16" height="10" fill="#8FBC8F"/>
  
  <!-- Crude clothing/loincloth -->
  <rect x="10" y="16" width="12" height="6" fill="#654321"/>
  <rect x="12" y="22" width="8" height="2" fill="#654321"/>
  
  <!-- Arms -->
  <rect x="4" y="16" width="4" height="6" fill="#8FBC8F"/>
  <rect x="24" y="16" width="4" height="6" fill="#8FBC8F"/>
  
  <!-- Claws -->
  <rect x="2" y="20" width="2" height="4" fill="#7BAA7B"/>
  <rect x="28" y="20" width="2" height="4" fill="#7BAA7B"/>
  <rect x="1" y="22" width="1" height="1" fill="#000000"/>
  <rect x="3" y="22" width="1" height="1" fill="#000000"/>
  <rect x="28" y="22" width="1" height="1" fill="#000000"/>
  <rect x="30" y="22" width="1" height="1" fill="#000000"/>
  
  <!-- Legs -->
  <rect x="10" y="24" width="4" height="6" fill="#8FBC8F"/>
  <rect x="18" y="24" width="4" height="6" fill="#8FBC8F"/>
  
  <!-- Feet -->
  <rect x="8" y="30" width="6" height="2" fill="#7BAA7B"/>
  <rect x="18" y="30" width="6" height="2" fill="#7BAA7B"/>
</svg>
