<?xml version="1.0" encoding="UTF-8"?>
<svg width="32" height="32" viewBox="0 0 32 32" xmlns="http://www.w3.org/2000/svg">
  <!-- Skeleton warrior -->
  
  <!-- Skull -->
  <rect x="10" y="4" width="12" height="10" fill="#F5F5DC"/>
  <rect x="8" y="6" width="2" height="6" fill="#F5F5DC"/>
  <rect x="22" y="6" width="2" height="6" fill="#F5F5DC"/>
  
  <!-- Eye sockets -->
  <rect x="12" y="6" width="2" height="3" fill="#000000"/>
  <rect x="18" y="6" width="2" height="3" fill="#000000"/>
  
  <!-- Glowing eyes -->
  <rect x="12" y="7" width="2" height="1" fill="#FF0000"/>
  <rect x="18" y="7" width="2" height="1" fill="#FF0000"/>
  
  <!-- Nasal cavity -->
  <rect x="15" y="8" width="2" height="3" fill="#000000"/>
  
  <!-- Jaw -->
  <rect x="12" y="12" width="8" height="3" fill="#F5F5DC"/>
  <rect x="13" y="13" width="1" height="1" fill="#000000"/>
  <rect x="15" y="13" width="1" height="1" fill="#000000"/>
  <rect x="17" y="13" width="1" height="1" fill="#000000"/>
  <rect x="19" y="13" width="1" height="1" fill="#000000"/>
  
  <!-- Spine/neck -->
  <rect x="14" y="15" width="4" height="2" fill="#F5F5DC"/>
  
  <!-- Ribcage -->
  <rect x="10" y="17" width="12" height="8" fill="#F5F5DC"/>
  <rect x="11" y="18" width="1" height="6" fill="#000000"/>
  <rect x="13" y="18" width="1" height="6" fill="#000000"/>
  <rect x="15" y="18" width="1" height="6" fill="#000000"/>
  <rect x="17" y="18" width="1" height="6" fill="#000000"/>
  <rect x="19" y="18" width="1" height="6" fill="#000000"/>
  <rect x="21" y="18" width="1" height="6" fill="#000000"/>
  
  <!-- Arms (bone) -->
  <rect x="4" y="17" width="6" height="3" fill="#F5F5DC"/>
  <rect x="22" y="17" width="6" height="3" fill="#F5F5DC"/>
  <rect x="2" y="20" width="4" height="6" fill="#F5F5DC"/>
  <rect x="26" y="20" width="4" height="6" fill="#F5F5DC"/>
  
  <!-- Pelvis -->
  <rect x="10" y="25" width="12" height="3" fill="#F5F5DC"/>
  
  <!-- Leg bones -->
  <rect x="11" y="28" width="3" height="4" fill="#F5F5DC"/>
  <rect x="18" y="28" width="3" height="4" fill="#F5F5DC"/>
  
  <!-- Joint details -->
  <rect x="5" y="19" width="2" height="2" fill="#E5E5CC"/>
  <rect x="25" y="19" width="2" height="2" fill="#E5E5CC"/>
  <rect x="12" y="27" width="2" height="2" fill="#E5E5CC"/>
  <rect x="18" y="27" width="2" height="2" fill="#E5E5CC"/>
</svg>
