<?xml version="1.0" encoding="UTF-8"?>
<svg width="32" height="32" viewBox="0 0 32 32" xmlns="http://www.w3.org/2000/svg">
  <!-- Green slime creature -->
  
  <!-- Main body (bright green) -->
  <rect x="6" y="16" width="20" height="12" fill="#32CD32"/>
  <rect x="8" y="14" width="16" height="2" fill="#32CD32"/>
  <rect x="10" y="12" width="12" height="2" fill="#32CD32"/>
  <rect x="12" y="10" width="8" height="2" fill="#32CD32"/>
  <rect x="14" y="8" width="4" height="2" fill="#32CD32"/>
  
  <!-- Bottom rounded shape -->
  <rect x="4" y="18" width="2" height="8" fill="#32CD32"/>
  <rect x="26" y="18" width="2" height="8" fill="#32CD32"/>
  <rect x="6" y="28" width="20" height="2" fill="#32CD32"/>
  <rect x="8" y="30" width="16" height="2" fill="#32CD32"/>
  
  <!-- Darker green shading -->
  <rect x="6" y="24" width="20" height="2" fill="#228B22"/>
  <rect x="8" y="26" width="16" height="2" fill="#228B22"/>
  
  <!-- Eyes (black pupils) -->
  <rect x="10" y="12" width="3" height="3" fill="#FFFFFF"/>
  <rect x="19" y="12" width="3" height="3" fill="#FFFFFF"/>
  <rect x="11" y="13" width="1" height="1" fill="#000000"/>
  <rect x="20" y="13" width="1" height="1" fill="#000000"/>
  
  <!-- Mouth -->
  <rect x="14" y="18" width="4" height="1" fill="#000000"/>
  
  <!-- Highlight -->
  <rect x="8" y="16" width="4" height="2" fill="#90EE90"/>
  <rect x="10" y="14" width="2" height="2" fill="#90EE90"/>
</svg>
