<?xml version="1.0" encoding="UTF-8"?>
<svg width="32" height="32" viewBox="0 0 32 32" xmlns="http://www.w3.org/2000/svg">
  <!-- Water tile with animation-ready waves -->
  
  <!-- Deep water base -->
  <rect x="0" y="0" width="32" height="32" fill="#1E90FF"/>
  
  <!-- Darker water sections for depth -->
  <rect x="0" y="8" width="32" height="4" fill="#1C7ED6"/>
  <rect x="0" y="16" width="32" height="4" fill="#1E90FF"/>
  <rect x="0" y="24" width="32" height="4" fill="#1C7ED6"/>
  
  <!-- Wave patterns -->
  <rect x="0" y="4" width="8" height="2" fill="#4682B4"/>
  <rect x="12" y="4" width="8" height="2" fill="#4682B4"/>
  <rect x="24" y="4" width="8" height="2" fill="#4682B4"/>
  
  <rect x="4" y="12" width="8" height="2" fill="#4682B4"/>
  <rect x="16" y="12" width="8" height="2" fill="#4682B4"/>
  <rect x="28" y="12" width="4" height="2" fill="#4682B4"/>
  
  <rect x="0" y="20" width="8" height="2" fill="#4682B4"/>
  <rect x="12" y="20" width="8" height="2" fill="#4682B4"/>
  <rect x="24" y="20" width="8" height="2" fill="#4682B4"/>
  
  <rect x="4" y="28" width="8" height="2" fill="#4682B4"/>
  <rect x="16" y="28" width="8" height="2" fill="#4682B4"/>
  <rect x="28" y="28" width="4" height="2" fill="#4682B4"/>
  
  <!-- Light reflections -->
  <rect x="2" y="2" width="4" height="1" fill="#87CEEB"/>
  <rect x="10" y="6" width="6" height="1" fill="#87CEEB"/>
  <rect x="20" y="3" width="4" height="1" fill="#87CEEB"/>
  <rect x="28" y="7" width="3" height="1" fill="#87CEEB"/>
  
  <rect x="1" y="14" width="5" height="1" fill="#87CEEB"/>
  <rect x="8" y="18" width="4" height="1" fill="#87CEEB"/>
  <rect x="16" y="15" width="6" height="1" fill="#87CEEB"/>
  <rect x="26" y="19" width="4" height="1" fill="#87CEEB"/>
  
  <rect x="3" y="26" width="4" height="1" fill="#87CEEB"/>
  <rect x="11" y="30" width="5" height="1" fill="#87CEEB"/>
  <rect x="19" y="27" width="4" height="1" fill="#87CEEB"/>
  <rect x="27" y="31" width="3" height="1" fill="#87CEEB"/>
  
  <!-- Foam/bubbles -->
  <rect x="6" y="1" width="1" height="1" fill="#F0F8FF"/>
  <rect x="14" y="9" width="1" height="1" fill="#F0F8FF"/>
  <rect x="22" y="17" width="1" height="1" fill="#F0F8FF"/>
  <rect x="30" y="25" width="1" height="1" fill="#F0F8FF"/>
  <rect x="8" y="23" width="1" height="1" fill="#F0F8FF"/>
</svg>
